<svg xmlns="http://www.w3.org/2000/svg" viewBox="0 0 85.16 101.74"><defs><style>.cls-1{fill:#3b444b;}</style></defs><title>Coaching particulier</title><g id="Calque_2" data-name="Calque 2"><g id="Calque_1-2" data-name="Calque 1"><path class="cls-1" d="M42.44,33.45A16.73,16.73,0,1,1,59,16.59v.28A16.71,16.71,0,0,1,42.44,33.45Z"/><path class="cls-1" d="M51.05,50.3c5.49,4.59,10.62,9.29,16,13.9a1.5,1.5,0,0,1,.53,2l-.16.21c-3.33,5.9-6.57,11.83-9.86,17.77a7.48,7.48,0,0,0,13,7.32L84,67.33a7.38,7.38,0,0,0-1.59-9.69L63.28,41.58"/><path class="cls-1" d="M42.58,101.74l-18.78,0V59.1L21.88,41.58a7.33,7.33,0,0,1,4.67-1.82H58.6a7.34,7.34,0,0,1,4.68,1.82L61.36,59.1v42.62Z"/><path class="cls-1" d="M34.1,50.3c-5.49,4.59-10.61,9.29-16,13.9a1.5,1.5,0,0,0-.53,2l.15.21c3.34,5.9,6.58,11.83,9.87,17.77a7.48,7.48,0,1,1-13,7.32L1.14,67.33a7.39,7.39,0,0,1,1.6-9.69L21.88,41.58"/></g></g></svg>