<svg xmlns="http://www.w3.org/2000/svg" viewBox="0 0 63.38 95.87"><defs><style>.cls-1{fill:#3b444b;}</style></defs><title>Espace Femmes</title><g id="Calque_2" data-name="Calque 2"><g id="Calque_1-2" data-name="Calque 1"><path class="cls-1" d="M63.38,31.69A31.69,31.69,0,1,0,28.55,63.22V75.7H16.85a3.14,3.14,0,1,0,0,6.28h11.7V92.73a3.14,3.14,0,1,0,6.28,0V82h11.7a3.14,3.14,0,0,0,0-6.28H34.83V63.22A31.72,31.72,0,0,0,63.38,31.69Zm-57.1,0A25.42,25.42,0,1,1,31.69,57.11,25.44,25.44,0,0,1,6.28,31.69Z"/></g></g></svg>