<?xml version="1.0" encoding="UTF-8"?>
<svg xmlns="http://www.w3.org/2000/svg" xmlns:xlink="http://www.w3.org/1999/xlink" width="500pt" height="500pt" viewBox="0 0 500 500" version="1.1">
<g id="surface7797291">
<path style=" stroke:none;fill-rule:nonzero;fill:rgb(100%,100%,100%);fill-opacity:1;" d="M 120 0 C 109.0625 0 100 9.0625 100 20 L 100 40 L 40 40 C 28.398438 40 20 48.398438 20 60 L 20 130 L 480 130 L 480 60 C 480 48.398438 471.601562 40 460 40 L 400 40 L 400 20 C 400 9.0625 390.9375 0 380 0 L 360 0 C 349.0625 0 340 9.0625 340 20 L 340 40 L 160 40 L 160 20 C 160 9.0625 150.9375 0 140 0 Z M 120 20 L 140 20 L 140 80 L 120 80 Z M 360 20 L 380 20 L 380 80 L 360 80 Z M 20 150 L 20 460 C 20 471.601562 28.398438 480 40 480 L 460 480 C 471.601562 480 480 471.601562 480 460 L 480 150 Z M 120 210 L 170 210 L 170 260 L 120 260 Z M 190 210 L 240 210 L 240 260 L 190 260 Z M 260 210 L 310 210 L 310 260 L 260 260 Z M 330 210 L 380 210 L 380 260 L 330 260 Z M 120 280 L 170 280 L 170 330 L 120 330 Z M 190 280 L 240 280 L 240 330 L 190 330 Z M 260 280 L 310 280 L 310 330 L 260 330 Z M 330 280 L 380 280 L 380 330 L 330 330 Z M 120 350 L 170 350 L 170 400 L 120 400 Z M 190 350 L 240 350 L 240 400 L 190 400 Z M 260 350 L 310 350 L 310 400 L 260 400 Z M 330 350 L 380 350 L 380 400 L 330 400 Z M 330 350 "/>
</g>
</svg>
