<?xml version="1.0" encoding="UTF-8"?>
<svg xmlns="http://www.w3.org/2000/svg" xmlns:xlink="http://www.w3.org/1999/xlink" width="500pt" height="500pt" viewBox="0 0 500 500" version="1.1">
<g id="surface7777422">
<path style=" stroke:none;fill-rule:nonzero;fill:rgb(100%,100%,100%);fill-opacity:1;" d="M 250 10 C 112.226562 10 0 108.789062 0 231.875 C 0 292.34375 27.734375 346.640625 72.1875 386.875 C 65.46875 407.617188 50.46875 423.984375 35.3125 436.5625 C 27.148438 443.320312 19.335938 449.101562 13.125 454.6875 C 10.039062 457.460938 7.226562 460.273438 5 463.75 C 2.773438 467.226562 0.78125 472.1875 2.1875 477.5 L 3.4375 481.5625 L 6.875 483.75 C 19.765625 491.171875 35.820312 492.460938 53.125 491.25 C 70.429688 490.039062 89.296875 486.054688 107.8125 480.9375 C 143.75 471.015625 177.5 456.875 195.3125 449.0625 C 212.890625 452.734375 230.546875 455 249.0625 455 C 386.835938 455 499.0625 356.210938 499.0625 233.125 C 499.0625 110.078125 387.8125 10 250 10 Z M 250 30 C 378.203125 30 479.0625 122.148438 479.0625 233.125 C 479.0625 344.023438 377.304688 435 249.0625 435 C 230.78125 435 213.554688 433.203125 196.25 429.375 L 192.8125 428.4375 L 190 430 C 173.28125 437.382812 137.929688 451.796875 102.5 461.5625 C 84.765625 466.445312 67.109375 470.195312 51.875 471.25 C 41.679688 471.953125 35.390625 469.53125 28.4375 467.8125 C 33.398438 463.554688 40.195312 458.476562 48.125 451.875 C 65.546875 437.421875 86.445312 417.304688 93.75 387.5 L 95.3125 381.25 L 90.3125 377.5 C 46.25 340.15625 20 288.75 20 231.875 C 20 120.976562 121.757812 30 250 30 Z M 238.125 128.125 C 235.117188 128.125 234.0625 129.882812 234.0625 131.875 L 234.0625 158.125 C 234.0625 161.132812 236.132812 161.875 238.125 161.875 L 261.875 161.875 C 264.882812 161.875 265.9375 160.117188 265.9375 158.125 L 265.9375 131.875 C 265.9375 128.867188 263.867188 128.125 261.875 128.125 Z M 239.0625 200.9375 C 236.054688 200.9375 235 203.007812 235 205 L 235 339.0625 C 235 342.070312 237.070312 343.125 239.0625 343.125 L 239.0625 344.0625 L 261.875 344.0625 C 264.882812 344.0625 265.9375 341.992188 265.9375 340 L 265.9375 205 C 265.9375 201.992188 263.867188 200.9375 261.875 200.9375 Z M 239.0625 200.9375 "/>
</g>
</svg>
